# xmcd CD database file
#
# Track frame offsets:
#	150
#	16234
#	32008
#	44682
#	58116
#	73073
#	82122
#	107417
#	116566
#	127559
#	144833
#	158616
#	168126
#	180298
#	200687
#	218136
#	241635
#	273538
#
# Disc length: 3932 seconds
#
# Revision: 0
# Processed by: cddbd v1.4PL0 Copyright (c) Steve Scherf et al.
# Submitted via: CDex 1.50beta9
#
DISCID=ea0f5a12
DTITLE=trio infernale - caminos
DYEAR=2002
DGENRE=Jazz
TTITLE0=Malaguena (Spanien Trad.)
TTITLE1=Tojsend sunen (Osteuropa Trad.)
TTITLE2=Milonga ( Argentinien Trad.)
TTITLE3=Inisheer ( Irland Trad.)
TTITLE4=Varjojen Tango (Finnland Unto Mononen)
TTITLE5=Sons de Carrilhoes (Brasilien Joao Pernambuco)
TTITLE6=Cordoba (Spanien Isaac Albeniz)
TTITLE7=Il gatto (Italien Enrico Morricone)
TTITLE8=Ojos grises ( Südamerika Trad.)
TTITLE9=Zigeuner-Romanze (Russland Trad.)
TTITLE10=Baidin Fheilimidh (Irland Trad.)
TTITLE11=Red-haired boy (Irland Trad.)
TTITLE12=Boleras Sevillianas (Spanien Trad.)
TTITLE13=Tumbalalaika (Russland Trad.)
TTITLE14=Ot Azoy (Osteuropa Trad.)
TTITLE15=Catari (Italien Trad.)
TTITLE16=Hejre Kati (Ungarn Jenö Hubay)
TTITLE17=Nigun (Osteuropa Trad.)
EXTD=YEAR: 2002
EXTT0=
EXTT1=
EXTT2=
EXTT3=
EXTT4=
EXTT5=
EXTT6=
EXTT7=
EXTT8=
EXTT9=
EXTT10=
EXTT11=
EXTT12=
EXTT13=
EXTT14=
EXTT15=
EXTT16=
EXTT17=
PLAYORDER=
